<?xml version="1.0" encoding="UTF-8"?>
<svg xmlns="http://www.w3.org/2000/svg" xmlns:xlink="http://www.w3.org/1999/xlink" width="512px" height="400px" viewBox="0 0 349 400" version="1.1">
<g id="surface1">
<path style=" stroke:none;fill-rule:nonzero;fill:rgb(10.588235%,45.098039%,72.941176%);fill-opacity:1;" d="M 29.222656 358.097656 L 0 0.671875 L 349 1.390625 L 318.097656 358.097656 L 175.816406 399.328125 Z M 29.222656 358.097656 "/>
<path style=" stroke:none;fill-rule:nonzero;fill:rgb(10.980392%,53.333333%,78.039216%);fill-opacity:1;" d="M 175.816406 364.808594 L 175.816406 34.710938 L 319.539062 35.191406 L 293.910156 330.53125 Z M 175.816406 364.808594 "/>
<path style=" stroke:none;fill-rule:nonzero;fill:rgb(100%,100%,100%);fill-opacity:1;" d="M 283.847656 76.902344 L 62.757812 76.902344 L 68.746094 120.050781 L 173.660156 120.050781 L 70.425781 164.402344 L 76.410156 206.113281 L 228.515625 206.113281 L 223.003906 264.363281 L 171.503906 274.433594 L 124.796875 262.449219 L 121.203125 229.363281 L 78.328125 229.363281 L 84.074219 298.167969 L 176.054688 323.816406 L 264.207031 295.769531 L 275.464844 161.285156 L 182.28125 161.285156 L 283.84375 119.09375 Z M 283.847656 76.902344 "/>
</g>
</svg>
