<?xml version="1.0" encoding="UTF-8"?>
<svg xmlns="http://www.w3.org/2000/svg" xmlns:xlink="http://www.w3.org/1999/xlink" width="150px" height="150px" viewBox="0 0 150 150" version="1.1">
<g id="surface1">
<path style=" stroke:none;fill-rule:nonzero;fill:rgb(23.921569%,35.294118%,59.607843%);fill-opacity:1;" d="M 125.699219 132 C 129.179688 132 132 129.179688 132 125.699219 L 132 24.300781 C 132 20.820312 129.179688 18 125.699219 18 L 24.300781 18 C 20.820312 18 18 20.820312 18 24.300781 L 18 125.699219 C 18 129.179688 20.820312 132 24.300781 132 Z M 125.699219 132 "/>
<path style=" stroke:none;fill-rule:nonzero;fill:rgb(100%,100%,100%);fill-opacity:1;" d="M 96.660156 132 L 96.660156 87.839844 L 111.480469 87.839844 L 113.699219 70.648438 L 96.660156 70.648438 L 96.660156 59.671875 C 96.660156 54.691406 98.039062 51.300781 105.179688 51.300781 L 114.300781 51.300781 L 114.300781 35.910156 C 112.710938 35.699219 107.308594 35.21875 101.011719 35.21875 C 87.871094 35.21875 78.871094 43.230469 78.871094 57.960938 L 78.871094 70.648438 L 64.019531 70.648438 L 64.019531 87.839844 L 78.898438 87.839844 L 78.898438 132 Z M 96.660156 132 "/>
</g>
</svg>
