<?xml version="1.0" encoding="UTF-8"?>
<svg xmlns="http://www.w3.org/2000/svg" xmlns:xlink="http://www.w3.org/1999/xlink" width="150px" height="150px" viewBox="0 0 150 117" version="1.1">
<g id="surface1">
<path style=" stroke:none;fill-rule:nonzero;fill:rgb(0%,0%,0%);fill-opacity:1;" d="M 75 0 C 42.644531 0 16.40625 26.195312 16.40625 58.5 C 16.40625 84.347656 33.195312 106.273438 56.480469 114.011719 C 59.402344 114.550781 60.351562 112.738281 60.351562 111.199219 L 60.351562 100.308594 C 44.054688 103.847656 40.660156 93.40625 40.660156 93.40625 C 37.992188 86.644531 34.148438 84.84375 34.148438 84.84375 C 28.832031 81.210938 34.554688 81.289062 34.554688 81.289062 C 40.441406 81.699219 43.535156 87.320312 43.535156 87.320312 C 48.761719 96.261719 57.242188 93.675781 60.585938 92.179688 C 61.109375 88.402344 62.625 85.820312 64.304688 84.363281 C 51.292969 82.875 37.613281 77.859375 37.613281 55.449219 C 37.613281 49.054688 39.902344 43.839844 43.648438 39.746094 C 43.042969 38.269531 41.035156 32.316406 44.21875 24.261719 C 44.21875 24.261719 49.140625 22.691406 60.335938 30.257812 C 65.007812 28.960938 70.019531 28.3125 75 28.289062 C 79.980469 28.3125 84.996094 28.960938 89.679688 30.257812 C 100.863281 22.691406 105.777344 24.261719 105.777344 24.261719 C 108.964844 32.320312 106.957031 38.273438 106.351562 39.746094 C 110.113281 43.839844 112.382812 49.0625 112.382812 55.449219 C 112.382812 77.917969 98.675781 82.867188 85.628906 84.3125 C 87.730469 86.125 89.648438 89.683594 89.648438 95.144531 L 89.648438 111.199219 C 89.648438 112.753906 90.585938 114.582031 93.558594 114.007812 C 116.824219 106.261719 133.59375 84.335938 133.59375 58.5 C 133.59375 26.195312 107.359375 0 75 0 Z M 75 0 "/>
</g>
</svg>
