<?xml version="1.0" encoding="UTF-8"?>
<svg xmlns="http://www.w3.org/2000/svg" xmlns:xlink="http://www.w3.org/1999/xlink" width="512px" height="400px" viewBox="0 0 400 400" version="1.1">
<g id="surface1">
<path style=" stroke:none;fill-rule:nonzero;fill:rgb(89.019608%,30.980392%,14.901961%);fill-opacity:1;" d="M 55.46875 359.375 L 23.4375 0 L 375.78125 0 L 343.75 359.375 L 199.21875 400 "/>
<path style=" stroke:none;fill-rule:nonzero;fill:rgb(93.72549%,39.607843%,16.470588%);fill-opacity:1;" d="M 200 368.75 L 316.40625 336.71875 L 343.75 28.90625 L 200 28.90625 "/>
<path style=" stroke:none;fill-rule:nonzero;fill:rgb(92.156863%,92.156863%,92.156863%);fill-opacity:1;" d="M 200 162.5 L 141.40625 162.5 L 137.5 117.1875 L 200 117.1875 L 200 73.4375 L 89.0625 73.4375 L 89.84375 85.15625 L 100.78125 207.03125 L 200 207.03125 Z M 200 277.34375 L 199.21875 277.34375 L 150 264.0625 L 146.875 228.90625 L 103.125 228.90625 L 108.59375 298.4375 L 199.21875 323.4375 L 200 323.4375 Z M 200 277.34375 "/>
<path style=" stroke:none;fill-rule:nonzero;fill:rgb(100%,100%,100%);fill-opacity:1;" d="M 199.21875 162.5 L 199.21875 207.03125 L 253.90625 207.03125 L 248.4375 264.0625 L 199.21875 277.34375 L 199.21875 323.4375 L 289.84375 298.4375 L 290.625 290.625 L 300.78125 174.21875 L 302.34375 162.5 Z M 199.21875 73.4375 L 199.21875 117.1875 L 306.25 117.1875 L 307.03125 107.8125 L 309.375 85.15625 L 310.15625 73.4375 Z M 199.21875 73.4375 "/>
</g>
</svg>
