<?xml version="1.0" encoding="UTF-8"?>
<svg xmlns="http://www.w3.org/2000/svg" xmlns:xlink="http://www.w3.org/1999/xlink" width="150px" height="150px" viewBox="0 0 150 150" version="1.1">
<defs>
<radialGradient id="radial0" gradientUnits="userSpaceOnUse" cx="217.76" cy="3290.99" fx="217.76" fy="3290.99" r="4271.92" gradientTransform="matrix(0.0445805,0,0,0.0445805,0,0)">
<stop offset="0.09" style="stop-color:rgb(98.039216%,56.078431%,12.941176%);stop-opacity:1;"/>
<stop offset="0.78" style="stop-color:rgb(84.705882%,17.647059%,49.411765%);stop-opacity:1;"/>
</radialGradient>
<radialGradient id="radial1" gradientUnits="userSpaceOnUse" cx="2330.61" cy="3182.95" fx="2330.61" fy="3182.95" r="3759.33" gradientTransform="matrix(0.0445805,0,0,0.0445805,0,0)">
<stop offset="0.64" style="stop-color:rgb(54.901961%,22.745098%,66.666667%);stop-opacity:0;"/>
<stop offset="1" style="stop-color:rgb(54.901961%,22.745098%,66.666667%);stop-opacity:1;"/>
</radialGradient>
</defs>
<g id="surface1">
<path style=" stroke:none;fill-rule:nonzero;fill:url(#radial0);" d="M 38.035156 149.46875 C 29.117188 149.0625 24.269531 147.578125 21.046875 146.320312 C 16.777344 144.660156 13.730469 142.679688 10.527344 139.480469 C 7.320312 136.277344 5.335938 133.234375 3.683594 128.960938 C 2.425781 125.738281 0.941406 120.894531 0.535156 111.972656 C 0.0898438 102.328125 0 99.4375 0 75.007812 C 0 50.578125 0.0976562 47.6875 0.53125 38.035156 C 0.9375 29.117188 2.429688 24.277344 3.679688 21.046875 C 5.339844 16.777344 7.324219 13.730469 10.519531 10.519531 C 13.722656 7.320312 16.765625 5.332031 21.042969 3.679688 C 24.265625 2.421875 29.109375 0.9375 38.03125 0.53125 C 47.679688 0.0898438 50.578125 0 74.996094 0 C 99.429688 0 102.316406 0.0976562 111.96875 0.53125 C 120.890625 0.9375 125.726562 2.429688 128.957031 3.679688 C 133.230469 5.332031 136.273438 7.320312 139.480469 10.519531 C 142.683594 13.722656 144.660156 16.769531 146.320312 21.042969 C 147.578125 24.265625 149.0625 29.109375 149.46875 38.03125 C 149.910156 47.683594 150 50.570312 150 75.003906 C 150 99.421875 149.910156 102.320312 149.46875 111.972656 C 149.0625 120.894531 147.570312 125.738281 146.320312 128.960938 C 144.660156 133.234375 142.679688 136.277344 139.480469 139.480469 C 136.277344 142.679688 133.230469 144.660156 128.957031 146.320312 C 125.734375 147.578125 120.890625 149.0625 111.96875 149.46875 C 102.324219 149.910156 99.429688 150 74.996094 150 C 50.578125 150 47.679688 149.914062 38.035156 149.46875 "/>
<path style=" stroke:none;fill-rule:nonzero;fill:url(#radial1);" d="M 38.035156 149.46875 C 29.117188 149.0625 24.269531 147.578125 21.046875 146.320312 C 16.777344 144.660156 13.730469 142.679688 10.527344 139.480469 C 7.320312 136.277344 5.335938 133.234375 3.683594 128.960938 C 2.425781 125.738281 0.941406 120.894531 0.535156 111.972656 C 0.0898438 102.328125 0 99.4375 0 75.007812 C 0 50.578125 0.0976562 47.6875 0.53125 38.035156 C 0.9375 29.117188 2.429688 24.277344 3.679688 21.046875 C 5.339844 16.777344 7.324219 13.730469 10.519531 10.519531 C 13.722656 7.320312 16.765625 5.332031 21.042969 3.679688 C 24.265625 2.421875 29.109375 0.9375 38.03125 0.53125 C 47.679688 0.0898438 50.578125 0 74.996094 0 C 99.429688 0 102.316406 0.0976562 111.96875 0.53125 C 120.890625 0.9375 125.726562 2.429688 128.957031 3.679688 C 133.230469 5.332031 136.273438 7.320312 139.480469 10.519531 C 142.683594 13.722656 144.660156 16.769531 146.320312 21.042969 C 147.578125 24.265625 149.0625 29.109375 149.46875 38.03125 C 149.910156 47.683594 150 50.570312 150 75.003906 C 150 99.421875 149.910156 102.320312 149.46875 111.972656 C 149.0625 120.894531 147.570312 125.738281 146.320312 128.960938 C 144.660156 133.234375 142.679688 136.277344 139.480469 139.480469 C 136.277344 142.679688 133.230469 144.660156 128.957031 146.320312 C 125.734375 147.578125 120.890625 149.0625 111.96875 149.46875 C 102.324219 149.910156 99.429688 150 74.996094 150 C 50.578125 150 47.679688 149.914062 38.035156 149.46875 "/>
<path style=" stroke:none;fill-rule:nonzero;fill:rgb(100%,100%,100%);fill-opacity:1;" d="M 56.582031 75.320312 C 56.582031 65.0625 64.898438 56.742188 75.15625 56.742188 C 85.414062 56.742188 93.734375 65.0625 93.734375 75.320312 C 93.734375 85.578125 85.414062 93.894531 75.15625 93.894531 C 64.898438 93.894531 56.582031 85.578125 56.582031 75.320312 M 46.542969 75.320312 C 46.542969 91.125 59.351562 103.933594 75.15625 103.933594 C 90.960938 103.933594 103.769531 91.125 103.769531 75.320312 C 103.769531 59.515625 90.960938 46.707031 75.15625 46.707031 C 59.351562 46.707031 46.542969 59.515625 46.542969 75.320312 M 98.214844 45.570312 C 98.214844 49.265625 101.207031 52.257812 104.902344 52.261719 C 108.59375 52.261719 111.589844 49.269531 111.589844 45.574219 C 111.59375 41.882812 108.597656 38.886719 104.90625 38.886719 L 104.902344 38.886719 C 101.210938 38.886719 98.21875 41.878906 98.214844 45.570312 M 52.644531 120.679688 C 47.210938 120.433594 44.257812 119.527344 42.292969 118.761719 C 39.691406 117.75 37.835938 116.542969 35.882812 114.59375 C 33.933594 112.644531 32.726562 110.789062 31.714844 108.1875 C 30.953125 106.226562 30.046875 103.273438 29.800781 97.839844 C 29.527344 91.964844 29.476562 90.203125 29.476562 75.320312 C 29.476562 60.4375 29.535156 58.679688 29.800781 52.800781 C 30.046875 47.367188 30.957031 44.417969 31.714844 42.453125 C 32.730469 39.851562 33.9375 37.996094 35.882812 36.042969 C 37.832031 34.089844 39.6875 32.882812 42.292969 31.875 C 44.257812 31.109375 47.210938 30.203125 52.644531 29.957031 C 58.515625 29.6875 60.28125 29.632812 75.15625 29.632812 C 90.03125 29.632812 91.796875 29.691406 97.675781 29.957031 C 103.109375 30.207031 106.058594 31.117188 108.023438 31.875 C 110.625 32.882812 112.480469 34.09375 114.433594 36.042969 C 116.386719 37.992188 117.589844 39.851562 118.601562 42.453125 C 119.367188 44.414062 120.273438 47.367188 120.519531 52.800781 C 120.789062 58.679688 120.84375 60.441406 120.84375 75.320312 C 120.84375 90.203125 120.789062 91.960938 120.519531 97.839844 C 120.273438 103.273438 119.363281 106.226562 118.601562 108.191406 C 117.589844 110.792969 116.382812 112.648438 114.433594 114.59375 C 112.484375 116.542969 110.625 117.75 108.023438 118.761719 C 106.0625 119.527344 103.109375 120.433594 97.675781 120.679688 C 91.800781 120.949219 90.039062 121.003906 75.15625 121.003906 C 60.273438 121.003906 58.515625 120.949219 52.644531 120.679688 M 52.179688 19.929688 C 46.25 20.203125 42.195312 21.140625 38.65625 22.519531 C 34.992188 23.941406 31.886719 25.851562 28.785156 28.949219 C 25.683594 32.042969 23.777344 35.148438 22.355469 38.820312 C 20.980469 42.359375 20.039062 46.414062 19.769531 52.34375 C 19.492188 58.285156 19.429688 60.1875 19.429688 75.320312 C 19.429688 90.453125 19.492188 92.351562 19.769531 98.292969 C 20.039062 104.226562 20.980469 108.277344 22.355469 111.820312 C 23.777344 115.484375 25.683594 118.597656 28.785156 121.691406 C 31.886719 124.785156 34.988281 126.691406 38.65625 128.121094 C 42.203125 129.496094 46.25 130.4375 52.179688 130.707031 C 58.125 130.976562 60.023438 131.046875 75.15625 131.046875 C 90.289062 131.046875 92.1875 130.980469 98.128906 130.707031 C 104.0625 130.4375 108.113281 129.496094 111.65625 128.121094 C 115.320312 126.691406 118.425781 124.789062 121.527344 121.691406 C 124.628906 118.59375 126.527344 115.484375 127.957031 111.820312 C 129.332031 108.277344 130.277344 104.226562 130.542969 98.292969 C 130.8125 92.347656 130.878906 90.453125 130.878906 75.320312 C 130.878906 60.1875 130.8125 58.285156 130.542969 52.34375 C 130.273438 46.414062 129.332031 42.359375 127.957031 38.820312 C 126.527344 35.15625 124.625 32.050781 121.527344 28.949219 C 118.433594 25.847656 115.320312 23.941406 111.660156 22.519531 C 108.113281 21.140625 104.0625 20.195312 98.136719 19.929688 C 92.191406 19.660156 90.292969 19.59375 75.164062 19.59375 C 60.03125 19.59375 58.128906 19.65625 52.183594 19.929688 "/>
</g>
</svg>
