<?xml version="1.0" encoding="UTF-8"?>
<svg xmlns="http://www.w3.org/2000/svg" xmlns:xlink="http://www.w3.org/1999/xlink" width="150px" height="150px" viewBox="0 0 150 150" version="1.1">
<g id="surface1">
<path style=" stroke:none;fill-rule:nonzero;fill:rgb(0%,40%,60%);fill-opacity:1;" d="M 0 11 C 0 5.09375 4.964844 0.300781 11.085938 0.300781 L 138.914062 0.300781 C 145.039062 0.300781 150 5.09375 150 11 L 150 139 C 150 144.910156 145.039062 149.699219 138.914062 149.699219 L 11.085938 149.699219 C 4.964844 149.699219 0 144.910156 0 139 Z M 0 11 "/>
<path style=" stroke:none;fill-rule:nonzero;fill:rgb(100%,100%,100%);fill-opacity:1;" d="M 45.582031 125.328125 L 45.582031 58.066406 L 23.136719 58.066406 L 23.136719 125.328125 L 45.585938 125.328125 Z M 34.367188 48.886719 C 42.191406 48.886719 47.0625 43.722656 47.0625 37.265625 C 46.917969 30.664062 42.191406 25.644531 34.515625 25.644531 C 26.832031 25.644531 21.8125 30.664062 21.8125 37.265625 C 21.8125 43.71875 26.683594 48.886719 34.21875 48.886719 Z M 58.007812 125.328125 L 80.453125 125.328125 L 80.453125 87.769531 C 80.453125 85.761719 80.597656 83.75 81.191406 82.316406 C 82.8125 78.296875 86.507812 74.140625 92.707031 74.140625 C 100.828125 74.140625 104.078125 80.304688 104.078125 89.347656 L 104.078125 125.328125 L 126.523438 125.328125 L 126.523438 86.761719 C 126.523438 66.105469 115.449219 56.492188 100.683594 56.492188 C 88.578125 56.492188 83.257812 63.230469 80.304688 67.820312 L 80.453125 67.820312 L 80.453125 58.070312 L 58.007812 58.070312 C 58.300781 64.378906 58.007812 125.332031 58.007812 125.332031 Z M 58.007812 125.328125 "/>
</g>
</svg>
