<?xml version="1.0" encoding="UTF-8"?>
<svg xmlns="http://www.w3.org/2000/svg" xmlns:xlink="http://www.w3.org/1999/xlink" width="512px" height="400px" viewBox="0 0 533 400" version="1.1">
<g id="surface1">
<path style=" stroke:none;fill-rule:nonzero;fill:rgb(80.392157%,40.392157%,60%);fill-opacity:1;" d="M 458.664062 229.890625 C 440.082031 229.988281 423.929688 234.464844 410.402344 241.085938 C 405.441406 231.253906 400.480469 222.488281 399.605469 216.0625 C 398.632812 208.566406 397.464844 203.992188 398.632812 195.035156 C 399.796875 186.078125 405.054688 173.324219 404.957031 172.351562 C 404.859375 171.375 403.789062 166.800781 393.085938 166.703125 C 382.382812 166.605469 373.140625 168.746094 372.070312 171.570312 C 371 174.394531 368.957031 180.820312 367.59375 187.441406 C 365.746094 197.175781 346.1875 231.933594 334.996094 250.140625 C 331.398438 243.03125 328.285156 236.800781 327.601562 231.835938 C 326.628906 224.339844 325.460938 219.765625 326.628906 210.808594 C 327.796875 201.851562 333.050781 189.097656 332.953125 188.121094 C 332.859375 187.148438 331.789062 182.574219 321.085938 182.476562 C 310.382812 182.378906 301.136719 184.519531 300.066406 187.34375 C 298.996094 190.167969 297.828125 196.789062 295.59375 203.210938 C 293.355469 209.636719 267.375 267.664062 260.566406 282.65625 C 257.0625 290.347656 254.046875 296.484375 251.90625 300.667969 C 251.90625 300.667969 251.808594 300.960938 251.515625 301.449219 C 249.667969 305.050781 248.597656 306.996094 248.597656 306.996094 C 248.597656 306.996094 248.597656 306.996094 248.597656 307.09375 C 247.136719 309.722656 245.582031 312.15625 244.800781 312.15625 C 244.21875 312.15625 243.148438 305.148438 244.996094 295.605469 C 248.890625 275.453125 258.132812 244.105469 258.035156 243.03125 C 258.035156 242.449219 259.785156 236.996094 252.003906 234.171875 C 244.414062 231.351562 241.6875 236.023438 241.007812 236.023438 C 240.328125 236.023438 239.839844 237.679688 239.839844 237.679688 C 239.839844 237.679688 248.304688 202.433594 223.6875 202.433594 C 208.316406 202.433594 187.105469 219.277344 176.597656 234.464844 C 169.980469 238.066406 155.871094 245.757812 140.789062 254.035156 C 135.050781 257.246094 129.113281 260.460938 123.570312 263.476562 C 123.179688 263.089844 122.789062 262.601562 122.402344 262.210938 C 92.628906 230.375 37.558594 207.886719 39.890625 165.144531 C 40.769531 149.566406 46.121094 108.675781 145.65625 59.023438 C 227.582031 18.621094 292.769531 29.816406 304.058594 54.644531 C 320.207031 90.082031 269.128906 155.894531 184.476562 165.4375 C 152.175781 169.039062 135.246094 156.578125 130.964844 151.90625 C 126.488281 147.035156 125.808594 146.746094 124.152344 147.71875 C 121.429688 149.179688 123.179688 153.558594 124.152344 156.089844 C 126.683594 162.710938 137.09375 174.394531 154.703125 180.140625 C 170.273438 185.203125 208.121094 188.023438 253.949219 170.304688 C 305.226562 150.445312 345.3125 95.242188 333.539062 48.996094 C 321.765625 2.070312 243.925781 -13.410156 170.273438 12.777344 C 126.488281 28.355469 79.007812 52.890625 44.855469 84.824219 C 4.28125 122.792969 -2.140625 155.800781 0.488281 169.625 C 9.925781 218.691406 77.546875 250.625 104.59375 274.285156 C 103.234375 275.0625 101.96875 275.746094 100.898438 276.328125 C 87.375 283.046875 35.804688 310.015625 22.960938 338.542969 C 8.367188 370.867188 25.296875 394.035156 36.488281 397.152344 C 71.222656 406.789062 106.929688 389.460938 126.097656 360.835938 C 145.265625 332.214844 142.929688 295.023438 134.078125 277.984375 C 133.980469 277.789062 133.882812 277.59375 133.6875 277.402344 C 137.191406 275.355469 140.789062 273.214844 144.292969 271.167969 C 151.203125 267.082031 158.011719 263.285156 163.851562 260.167969 C 160.542969 269.222656 158.109375 280.027344 156.941406 295.605469 C 155.484375 313.910156 162.976562 337.664062 172.800781 347.011719 C 177.179688 351.101562 182.335938 351.199219 185.644531 351.199219 C 197.125 351.199219 202.28125 341.65625 208.023438 330.363281 C 215.027344 316.539062 221.355469 300.476562 221.355469 300.476562 C 221.355469 300.476562 213.472656 343.898438 234.878906 343.898438 C 242.660156 343.898438 250.542969 333.769531 254.046875 328.613281 C 254.046875 328.707031 254.046875 328.707031 254.046875 328.707031 C 254.046875 328.707031 254.242188 328.417969 254.628906 327.734375 C 255.40625 326.46875 255.894531 325.691406 255.894531 325.691406 C 255.894531 325.691406 255.894531 325.59375 255.894531 325.496094 C 259.007812 320.042969 266.011719 307.679688 276.425781 287.136719 C 289.851562 260.65625 302.792969 227.550781 302.792969 227.550781 C 302.792969 227.550781 303.960938 235.632812 307.949219 249.070312 C 310.285156 256.957031 315.148438 265.621094 319.042969 273.992188 C 315.925781 278.375 313.980469 280.808594 313.980469 280.808594 C 313.980469 280.808594 313.980469 280.808594 314.078125 280.90625 C 311.550781 284.214844 308.824219 287.816406 305.808594 291.324219 C 295.203125 303.980469 282.554688 318.484375 280.804688 322.671875 C 278.757812 327.636719 279.246094 331.238281 283.136719 334.160156 C 285.960938 336.304688 291.019531 336.59375 296.175781 336.304688 C 305.710938 335.621094 312.425781 333.285156 315.734375 331.824219 C 320.890625 329.972656 326.921875 327.152344 332.566406 322.964844 C 342.976562 315.273438 349.300781 304.273438 348.71875 289.765625 C 348.425781 281.78125 345.796875 273.796875 342.585938 266.300781 C 343.558594 264.9375 344.4375 263.574219 345.410156 262.210938 C 361.851562 238.164062 374.597656 211.78125 374.597656 211.78125 C 374.597656 211.78125 375.765625 219.859375 379.753906 233.296875 C 381.699219 240.113281 385.691406 247.511719 389.191406 254.714844 C 373.722656 267.273438 364.1875 281.878906 360.78125 291.421875 C 354.652344 309.140625 359.417969 317.121094 368.46875 318.972656 C 372.554688 319.847656 378.394531 317.902344 382.675781 316.050781 C 388.121094 314.300781 394.542969 311.28125 400.675781 306.804688 C 411.085938 299.113281 421.105469 288.402344 420.523438 273.894531 C 420.230469 267.273438 418.480469 260.753906 416.046875 254.421875 C 429.183594 248.972656 446.113281 245.953125 467.710938 248.484375 C 514.027344 253.9375 523.171875 282.851562 521.421875 295.023438 C 519.671875 307.191406 509.941406 313.8125 506.730469 315.855469 C 503.519531 317.902344 502.449219 318.582031 502.738281 320.042969 C 503.128906 322.1875 504.6875 322.089844 507.410156 321.699219 C 511.207031 321.015625 531.734375 311.867188 532.609375 289.472656 C 534.070312 260.847656 506.828125 229.597656 458.664062 229.890625 Z M 101.386719 350.417969 C 86.011719 367.164062 64.605469 373.492188 55.363281 368.140625 C 45.4375 362.394531 49.332031 337.664062 68.207031 319.945312 C 79.6875 309.140625 94.476562 299.113281 104.304688 292.976562 C 106.542969 291.613281 109.851562 289.667969 113.839844 287.234375 C 114.519531 286.84375 114.910156 286.648438 114.910156 286.648438 C 115.6875 286.164062 116.464844 285.675781 117.246094 285.1875 C 124.152344 310.503906 117.535156 332.796875 101.386719 350.417969 Z M 213.277344 274.285156 C 207.925781 287.332031 196.738281 320.726562 189.925781 318.875 C 184.089844 317.316406 180.488281 292.003906 188.757812 266.984375 C 192.941406 254.421875 201.796875 239.429688 206.953125 233.589844 C 215.320312 224.242188 224.5625 221.125 226.800781 224.925781 C 229.625 229.890625 216.585938 266.105469 213.277344 274.285156 Z M 305.613281 318.484375 C 303.375 319.65625 301.234375 320.433594 300.261719 319.847656 C 299.582031 319.460938 301.234375 317.902344 301.234375 317.902344 C 301.234375 317.902344 312.8125 305.441406 317.386719 299.792969 C 320.015625 296.484375 323.128906 292.589844 326.4375 288.207031 C 326.4375 288.597656 326.4375 289.082031 326.4375 289.472656 C 326.4375 304.367188 312.035156 314.398438 305.613281 318.484375 Z M 376.835938 302.226562 C 375.183594 301.058594 375.472656 297.164062 381.019531 284.996094 C 383.160156 280.222656 388.21875 272.242188 396.878906 264.550781 C 397.851562 267.664062 398.535156 270.683594 398.4375 273.507812 C 398.339844 292.296875 384.910156 299.304688 376.835938 302.226562 Z M 376.835938 302.226562 "/>
</g>
</svg>
