<?xml version="1.0" encoding="UTF-8"?>
<svg xmlns="http://www.w3.org/2000/svg" xmlns:xlink="http://www.w3.org/1999/xlink" width="512px" height="400px" viewBox="0 0 560 400" version="1.1">
<g id="surface1">
<path style=" stroke:none;fill-rule:nonzero;fill:rgb(12.941176%,45.882353%,60.784314%);fill-opacity:1;" d="M 151.320312 199.996094 C 151.320312 250.929688 180.921875 294.945312 223.839844 315.800781 L 162.460938 147.628906 C 155.320312 163.632812 151.320312 181.339844 151.320312 199.996094 Z M 151.320312 199.996094 "/>
<path style=" stroke:none;fill-rule:nonzero;fill:rgb(12.941176%,45.882353%,60.784314%);fill-opacity:1;" d="M 366.863281 193.503906 C 366.863281 177.601562 361.148438 166.585938 356.25 158.015625 C 349.726562 147.417969 343.613281 138.441406 343.613281 127.839844 C 343.613281 116.011719 352.585938 105 365.222656 105 C 365.792969 105 366.332031 105.074219 366.890625 105.105469 C 343.996094 84.132812 313.496094 71.324219 279.996094 71.324219 C 235.042969 71.324219 195.492188 94.390625 172.484375 129.324219 C 175.503906 129.414062 178.347656 129.480469 180.765625 129.480469 C 194.226562 129.480469 215.058594 127.847656 215.058594 127.847656 C 221.996094 127.4375 222.8125 137.625 215.882812 138.445312 C 215.882812 138.445312 208.914062 139.265625 201.15625 139.671875 L 248.015625 279.050781 L 276.175781 194.59375 L 256.125 139.667969 C 249.199219 139.261719 242.632812 138.441406 242.632812 138.441406 C 235.699219 138.035156 236.511719 127.433594 243.445312 127.839844 C 243.445312 127.839844 264.695312 129.472656 277.339844 129.472656 C 290.796875 129.472656 311.632812 127.839844 311.632812 127.839844 C 318.574219 127.433594 319.390625 137.621094 312.457031 138.441406 C 312.457031 138.441406 305.472656 139.261719 297.730469 139.667969 L 344.230469 277.988281 L 357.066406 235.101562 C 362.628906 217.300781 366.863281 204.519531 366.863281 193.503906 Z M 366.863281 193.503906 "/>
<path style=" stroke:none;fill-rule:nonzero;fill:rgb(12.941176%,45.882353%,60.784314%);fill-opacity:1;" d="M 282.253906 211.25 L 243.648438 323.4375 C 255.175781 326.824219 267.363281 328.679688 279.996094 328.679688 C 294.980469 328.679688 309.351562 326.089844 322.726562 321.386719 C 322.382812 320.835938 322.066406 320.25 321.8125 319.613281 Z M 282.253906 211.25 "/>
<path style=" stroke:none;fill-rule:nonzero;fill:rgb(12.941176%,45.882353%,60.784314%);fill-opacity:1;" d="M 392.902344 138.261719 C 393.457031 142.359375 393.769531 146.761719 393.769531 151.492188 C 393.769531 164.550781 391.332031 179.230469 383.988281 197.582031 L 344.683594 311.222656 C 382.9375 288.914062 408.667969 247.46875 408.667969 200 C 408.667969 177.628906 402.953125 156.589844 392.902344 138.261719 Z M 392.902344 138.261719 "/>
<path style=" stroke:none;fill-rule:nonzero;fill:rgb(12.941176%,45.882353%,60.784314%);fill-opacity:1;" d="M 279.996094 50.003906 C 197.289062 50.003906 130 117.289062 130 199.996094 C 130 282.710938 197.289062 349.996094 279.996094 349.996094 C 362.699219 349.996094 430 282.710938 430 199.996094 C 429.996094 117.289062 362.699219 50.003906 279.996094 50.003906 Z M 279.996094 343.121094 C 201.082031 343.121094 136.878906 278.914062 136.878906 199.996094 C 136.878906 121.082031 201.082031 56.882812 279.996094 56.882812 C 358.90625 56.882812 423.109375 121.082031 423.109375 199.996094 C 423.109375 278.914062 358.90625 343.121094 279.996094 343.121094 Z M 279.996094 343.121094 "/>
</g>
</svg>
